<mxfile host="65bd71144e">
    <diagram name="00 - UI Map &amp; Flow" id="ui-map">
        <mxGraphModel dx="1679" dy="1036" grid="1" gridSize="10" guides="1" tooltips="1" connect="1" arrows="1" fold="1" page="1" pageScale="1" pageWidth="1920" pageHeight="1080" math="0" shadow="0">
            <root>
                <mxCell id="0"/>
                <mxCell id="1" parent="0"/>
                <mxCell id="title" value="NewsRecursive MVP 1 - UI Map &amp; User Flow" style="text;html=1;strokeColor=none;fillColor=none;align=center;verticalAlign=middle;whiteSpace=wrap;fontSize=32;fontStyle=1;" parent="1" vertex="1">
                    <mxGeometry x="460" y="20" width="1000" height="60" as="geometry"/>
                </mxCell>
                <mxCell id="subtitle" value="Three-Screen Recursive Narrative Stack: Surface → Story → Backstage" style="text;html=1;strokeColor=none;fillColor=none;align=center;verticalAlign=middle;whiteSpace=wrap;fontSize=18;fontStyle=2;fontColor=#666666;" parent="1" vertex="1">
                    <mxGeometry x="460" y="80" width="1000" height="40" as="geometry"/>
                </mxCell>
                <mxCell id="homepage-box" value="" style="rounded=1;whiteSpace=wrap;html=1;fillColor=#dae8fc;strokeColor=#6c8ebf;strokeWidth=3;" parent="1" vertex="1">
                    <mxGeometry x="80" y="180" width="480" height="700" as="geometry"/>
                </mxCell>
                <mxCell id="homepage-title" value="1️⃣ HOMEPAGE" style="text;html=1;strokeColor=none;fillColor=none;align=center;verticalAlign=middle;whiteSpace=wrap;fontSize=24;fontStyle=1;" parent="1" vertex="1">
                    <mxGeometry x="80" y="190" width="480" height="40" as="geometry"/>
                </mxCell>
                <mxCell id="homepage-subtitle" value="/home (Entry Point)" style="text;html=1;strokeColor=none;fillColor=none;align=center;verticalAlign=middle;whiteSpace=wrap;fontSize=14;fontStyle=2;fontColor=#666666;" parent="1" vertex="1">
                    <mxGeometry x="80" y="230" width="480" height="30" as="geometry"/>
                </mxCell>
                <mxCell id="homepage-section1" value="📋 NEWS FEED (Default Mode)" style="rounded=1;whiteSpace=wrap;html=1;fillColor=#ffffff;strokeColor=#999999;fontSize=14;fontStyle=1;align=left;verticalAlign=top;spacingLeft=10;spacingTop=5;" parent="1" vertex="1">
                    <mxGeometry x="100" y="280" width="440" height="150" as="geometry"/>
                </mxCell>
                <mxCell id="homepage-feed-content" value="• Story cards ranked by Health &amp; activity&#xa;• Title, summary, thumbnail&#xa;• Health bar (🔴→🔵→🟢→⭐)&#xa;• Contributors count, updates, tip button&#xa;• Tap → open /story/:id" style="text;html=1;strokeColor=none;fillColor=none;align=left;verticalAlign=top;whiteSpace=wrap;fontSize=11;spacingLeft=10;spacingTop=5;" parent="1" vertex="1">
                    <mxGeometry x="110" y="310" width="420" height="110" as="geometry"/>
                </mxCell>
                <mxCell id="homepage-section2" value="📖 MAGAZINE MODE (Phase 1.5)" style="rounded=1;whiteSpace=wrap;html=1;fillColor=#fff2cc;strokeColor=#d6b656;fontSize=14;fontStyle=1;align=left;verticalAlign=top;spacingLeft=10;spacingTop=5;" parent="1" vertex="1">
                    <mxGeometry x="100" y="450" width="440" height="100" as="geometry"/>
                </mxCell>
                <mxCell id="homepage-mag-content" value="• AI-synthesized personal digest&#xa;• Continuous editorial feed&#xa;• MVP 1: Layout toggle only (minimal)" style="text;html=1;strokeColor=none;fillColor=none;align=left;verticalAlign=top;whiteSpace=wrap;fontSize=11;spacingLeft=10;spacingTop=5;" parent="1" vertex="1">
                    <mxGeometry x="110" y="480" width="420" height="60" as="geometry"/>
                </mxCell>
                <mxCell id="homepage-section3" value="💬 GLOBAL CHAT (Floating/Drawer)" style="rounded=1;whiteSpace=wrap;html=1;fillColor=#e1d5e7;strokeColor=#9673a6;fontSize=14;fontStyle=1;align=left;verticalAlign=top;spacingLeft=10;spacingTop=5;" parent="1" vertex="1">
                    <mxGeometry x="100" y="570" width="440" height="120" as="geometry"/>
                </mxCell>
                <mxCell id="homepage-chat-content" value="• Prompt: &quot;Ask or submit a story link&quot;&#xa;• Auto-suggest topic clusters&#xa;• Connects to /new-story modal&#xa;• Later: Newstr Bot conversational seeding" style="text;html=1;strokeColor=none;fillColor=none;align=left;verticalAlign=top;whiteSpace=wrap;fontSize=11;spacingLeft=10;spacingTop=5;" parent="1" vertex="1">
                    <mxGeometry x="110" y="600" width="420" height="80" as="geometry"/>
                </mxCell>
                <mxCell id="homepage-controls" value="CONTROLS: Sort (Trending|Newest|Coherent) | Filter (Topics|Regions|Entropy)" style="rounded=1;whiteSpace=wrap;html=1;fillColor=#f8f9fa;strokeColor=#dee2e6;fontSize=11;align=left;spacingLeft=10;" parent="1" vertex="1">
                    <mxGeometry x="100" y="710" width="440" height="50" as="geometry"/>
                </mxCell>
                <mxCell id="homepage-nav" value="NAV: Profile | Notifications | Search" style="rounded=1;whiteSpace=wrap;html=1;fillColor=#f8f9fa;strokeColor=#dee2e6;fontSize=11;align=left;spacingLeft=10;" parent="1" vertex="1">
                    <mxGeometry x="100" y="780" width="440" height="40" as="geometry"/>
                </mxCell>
                <mxCell id="story-box" value="" style="rounded=1;whiteSpace=wrap;html=1;fillColor=#d5e8d4;strokeColor=#82b366;strokeWidth=3;" parent="1" vertex="1">
                    <mxGeometry x="720" y="180" width="480" height="700" as="geometry"/>
                </mxCell>
                <mxCell id="story-title-box" value="2️⃣ STORY PAGE" style="text;html=1;strokeColor=none;fillColor=none;align=center;verticalAlign=middle;whiteSpace=wrap;fontSize=24;fontStyle=1;" parent="1" vertex="1">
                    <mxGeometry x="720" y="190" width="480" height="40" as="geometry"/>
                </mxCell>
                <mxCell id="story-subtitle" value="/story/:id (Public Interface)" style="text;html=1;strokeColor=none;fillColor=none;align=center;verticalAlign=middle;whiteSpace=wrap;fontSize=14;fontStyle=2;fontColor=#666666;" parent="1" vertex="1">
                    <mxGeometry x="720" y="230" width="480" height="30" as="geometry"/>
                </mxCell>
                <mxCell id="story-section1" value="MAIN COLUMN" style="rounded=1;whiteSpace=wrap;html=1;fillColor=#ffffff;strokeColor=#999999;fontSize=14;fontStyle=1;align=left;verticalAlign=top;spacingLeft=10;spacingTop=5;" parent="1" vertex="1">
                    <mxGeometry x="740" y="280" width="440" height="220" as="geometry"/>
                </mxCell>
                <mxCell id="story-main-content" value="• Story title + summary (backstage editable)&#xa;• Timeline of verified claims/updates&#xa;• Embedded artifacts:&#xa;  - Images, tweets, videos&#xa;  - Documents, data visualizations&#xa;• AI-generated abstract (Phase 1.5)&#xa;• Scroll-reading with highlights&#xa;• Vote / Tip / Share actions" style="text;html=1;strokeColor=none;fillColor=none;align=left;verticalAlign=top;whiteSpace=wrap;fontSize=11;spacingLeft=10;spacingTop=5;" parent="1" vertex="1">
                    <mxGeometry x="750" y="310" width="420" height="180" as="geometry"/>
                </mxCell>
                <mxCell id="story-section2" value="SIDEBAR (Right)" style="rounded=1;whiteSpace=wrap;html=1;fillColor=#ffffff;strokeColor=#999999;fontSize=14;fontStyle=1;align=left;verticalAlign=top;spacingLeft=10;spacingTop=5;" parent="1" vertex="1">
                    <mxGeometry x="740" y="520" width="440" height="240" as="geometry"/>
                </mxCell>
                <mxCell id="story-sidebar-content" value="🎯 NARRATIVE HEALTH METER&#xa;  • Progress bar + Hₙ value&#xa;  • Tooltip: coherence = lower entropy&#xa;&#xa;📋 LATEST BACKSTAGE UPDATES&#xa;  • 3 newest discussion items&#xa;  • Link: &quot;Go to Builder&quot;&#xa;&#xa;💰 STAKE/TIP BUTTONS&#xa;  • Micro-tipping in MVP 1&#xa;&#xa;💬 &quot;ASK STORY&quot; CHAT&#xa;  • Inline chat for clarification&#xa;  • Links to discussion threads" style="text;html=1;strokeColor=none;fillColor=none;align=left;verticalAlign=top;whiteSpace=wrap;fontSize=11;spacingLeft=10;spacingTop=5;" parent="1" vertex="1">
                    <mxGeometry x="750" y="550" width="420" height="200" as="geometry"/>
                </mxCell>
                <mxCell id="story-footer" value="FOOTER: Related Stories (Cross-Narratives) | &quot;Join Investigation&quot; CTA → /build/:id" style="rounded=1;whiteSpace=wrap;html=1;fillColor=#f8f9fa;strokeColor=#dee2e6;fontSize=11;align=left;spacingLeft=10;" parent="1" vertex="1">
                    <mxGeometry x="740" y="780" width="440" height="40" as="geometry"/>
                </mxCell>
                <mxCell id="builder-box" value="" style="rounded=1;whiteSpace=wrap;html=1;fillColor=#ffe6cc;strokeColor=#d79b00;strokeWidth=3;" parent="1" vertex="1">
                    <mxGeometry x="1360" y="180" width="480" height="700" as="geometry"/>
                </mxCell>
                <mxCell id="builder-title-box" value="3️⃣ BUILDER PAGE" style="text;html=1;strokeColor=none;fillColor=none;align=center;verticalAlign=middle;whiteSpace=wrap;fontSize=24;fontStyle=1;" parent="1" vertex="1">
                    <mxGeometry x="1360" y="190" width="480" height="40" as="geometry"/>
                </mxCell>
                <mxCell id="builder-subtitle" value="/build/:id (Backstage/Workspace)" style="text;html=1;strokeColor=none;fillColor=none;align=center;verticalAlign=middle;whiteSpace=wrap;fontSize=14;fontStyle=2;fontColor=#666666;" parent="1" vertex="1">
                    <mxGeometry x="1360" y="230" width="480" height="30" as="geometry"/>
                </mxCell>
                <mxCell id="builder-section1" value="DISCUSSION BOARD (Main Area)" style="rounded=1;whiteSpace=wrap;html=1;fillColor=#ffffff;strokeColor=#999999;fontSize=14;fontStyle=1;align=left;verticalAlign=top;spacingLeft=10;spacingTop=5;" parent="1" vertex="1">
                    <mxGeometry x="1380" y="280" width="440" height="300" as="geometry"/>
                </mxCell>
                <mxCell id="builder-discussion-content" value="Categorized Threads:&#xa;&#xa;🧩 EVIDENCE / SOURCES&#xa;  • Primary sources, data, documents&#xa;&#xa;🧠 ANALYSIS / INTERPRETATION&#xa;  • Expert commentary, reasoning&#xa;&#xa;🏛️ INSTITUTIONAL / OFFICIAL RESPONSES&#xa;  • Govt, orgs, stakeholder statements&#xa;&#xa;🪞 REFLECTIONS / ETHICS &amp; IMPACT&#xa;  • Meta-discussion, implications&#xa;&#xa;Each thread = expandable card:&#xa;  • Topic title, post count, new replies&#xa;  • Tags: Artifact | Claim | Thread | Story Link&#xa;  • Nested comment view (GitHub-style)" style="text;html=1;strokeColor=none;fillColor=none;align=left;verticalAlign=top;whiteSpace=wrap;fontSize=11;spacingLeft=10;spacingTop=5;" parent="1" vertex="1">
                    <mxGeometry x="1390" y="310" width="420" height="260" as="geometry"/>
                </mxCell>
                <mxCell id="builder-section2" value="SIDEBAR (Right)" style="rounded=1;whiteSpace=wrap;html=1;fillColor=#ffffff;strokeColor=#999999;fontSize=14;fontStyle=1;align=left;verticalAlign=top;spacingLeft=10;spacingTop=5;" parent="1" vertex="1">
                    <mxGeometry x="1380" y="600" width="440" height="160" as="geometry"/>
                </mxCell>
                <mxCell id="builder-sidebar-content" value="📊 ENTROPY TRAJECTORY CHART&#xa;  • Mini line graph of Hₙ over time&#xa;&#xa;🏆 CONTRIBUTOR LEADERBOARD&#xa;  • Most helpful replies, tip count&#xa;&#xa;➕ QUICK ADD ARTIFACT&#xa;  • Paste link → auto-parse metadata&#xa;&#xa;🤖 AI ASSISTS (Phase 1.5)&#xa;  • Suggest cross-references&#xa;  • Detect contradictions" style="text;html=1;strokeColor=none;fillColor=none;align=left;verticalAlign=top;whiteSpace=wrap;fontSize=11;spacingLeft=10;spacingTop=5;" parent="1" vertex="1">
                    <mxGeometry x="1390" y="630" width="420" height="120" as="geometry"/>
                </mxCell>
                <mxCell id="builder-actions" value="INTERACTIONS: Create Thread | Reply | Attach Artifact | Upvote/Tip | Watch Entropy Updates" style="rounded=1;whiteSpace=wrap;html=1;fillColor=#f8f9fa;strokeColor=#dee2e6;fontSize=11;align=left;spacingLeft=10;" parent="1" vertex="1">
                    <mxGeometry x="1380" y="780" width="440" height="40" as="geometry"/>
                </mxCell>
                <mxCell id="arrow1" value="" style="endArrow=classic;html=1;strokeWidth=4;strokeColor=#6c8ebf;exitX=1;exitY=0.5;exitDx=0;exitDy=0;entryX=0;entryY=0.5;entryDx=0;entryDy=0;" parent="1" source="homepage-box" target="story-box" edge="1">
                    <mxGeometry width="50" height="50" relative="1" as="geometry">
                        <mxPoint x="580" y="530" as="sourcePoint"/>
                        <mxPoint x="630" y="480" as="targetPoint"/>
                    </mxGeometry>
                </mxCell>
                <mxCell id="arrow1-label" value="Click Story Card&#xa;Opens /story/:id" style="edgeLabel;html=1;align=center;verticalAlign=middle;resizable=0;points=[];fontSize=12;fontStyle=1;labelBackgroundColor=#ffffff;" parent="arrow1" vertex="1" connectable="0">
                    <mxGeometry x="-0.1" y="2" relative="1" as="geometry">
                        <mxPoint x="10" y="-18" as="offset"/>
                    </mxGeometry>
                </mxCell>
                <mxCell id="arrow2" value="" style="endArrow=classic;html=1;strokeWidth=4;strokeColor=#82b366;exitX=1;exitY=0.5;exitDx=0;exitDy=0;entryX=0;entryY=0.5;entryDx=0;entryDy=0;" parent="1" source="story-box" target="builder-box" edge="1">
                    <mxGeometry width="50" height="50" relative="1" as="geometry">
                        <mxPoint x="1220" y="530" as="sourcePoint"/>
                        <mxPoint x="1270" y="480" as="targetPoint"/>
                    </mxGeometry>
                </mxCell>
                <mxCell id="arrow2-label" value="&quot;Go to Builder&quot;&#xa;&quot;Join Investigation&quot;&#xa;Opens /build/:id" style="edgeLabel;html=1;align=center;verticalAlign=middle;resizable=0;points=[];fontSize=12;fontStyle=1;labelBackgroundColor=#ffffff;" parent="arrow2" vertex="1" connectable="0">
                    <mxGeometry x="-0.1" y="2" relative="1" as="geometry">
                        <mxPoint x="10" y="-25" as="offset"/>
                    </mxGeometry>
                </mxCell>
                <mxCell id="arrow3" value="" style="endArrow=classic;html=1;strokeWidth=3;strokeColor=#d79b00;exitX=0;exitY=0.7;exitDx=0;exitDy=0;entryX=1;entryY=0.7;entryDx=0;entryDy=0;dashed=1;" parent="1" source="builder-box" target="story-box" edge="1">
                    <mxGeometry width="50" height="50" relative="1" as="geometry">
                        <mxPoint x="1220" y="690" as="sourcePoint"/>
                        <mxPoint x="1270" y="640" as="targetPoint"/>
                    </mxGeometry>
                </mxCell>
                <mxCell id="arrow3-label" value="Updates reflect&#xa;in Story view" style="edgeLabel;html=1;align=center;verticalAlign=middle;resizable=0;points=[];fontSize=11;fontStyle=2;labelBackgroundColor=#ffffff;" parent="arrow3" vertex="1" connectable="0">
                    <mxGeometry x="-0.1" y="2" relative="1" as="geometry">
                        <mxPoint x="10" y="20" as="offset"/>
                    </mxGeometry>
                </mxCell>
                <mxCell id="arrow4" value="" style="endArrow=classic;html=1;strokeWidth=3;strokeColor=#6c8ebf;exitX=0;exitY=0.7;exitDx=0;exitDy=0;entryX=1;entryY=0.7;entryDx=0;entryDy=0;dashed=1;" parent="1" source="story-box" target="homepage-box" edge="1">
                    <mxGeometry width="50" height="50" relative="1" as="geometry">
                        <mxPoint x="580" y="690" as="sourcePoint"/>
                        <mxPoint x="630" y="640" as="targetPoint"/>
                    </mxGeometry>
                </mxCell>
                <mxCell id="arrow4-label" value="Back to Feed&#xa;(Nav button)" style="edgeLabel;html=1;align=center;verticalAlign=middle;resizable=0;points=[];fontSize=11;fontStyle=2;labelBackgroundColor=#ffffff;" parent="arrow4" vertex="1" connectable="0">
                    <mxGeometry x="-0.1" y="2" relative="1" as="geometry">
                        <mxPoint x="10" y="20" as="offset"/>
                    </mxGeometry>
                </mxCell>
                <mxCell id="flow-box" value="USER FLOW" style="rounded=1;whiteSpace=wrap;html=1;fillColor=#f8f9fa;strokeColor=#666666;strokeWidth=2;fontSize=18;fontStyle=1;align=left;verticalAlign=top;spacingLeft=20;spacingTop=10;" parent="1" vertex="1">
                    <mxGeometry x="80" y="920" width="1760" height="140" as="geometry"/>
                </mxCell>
                <mxCell id="flow-1" value="1️⃣ DISCOVER → READ → CONTRIBUTE&#xa;Homepage → Story → Builder" style="rounded=1;whiteSpace=wrap;html=1;fillColor=#dae8fc;strokeColor=#6c8ebf;fontSize=13;fontStyle=1;align=left;spacingLeft=10;verticalAlign=middle;" parent="1" vertex="1">
                    <mxGeometry x="100" y="960" width="520" height="60" as="geometry"/>
                </mxCell>
                <mxCell id="flow-2" value="2️⃣ ASK → SEED NEW STORY&#xa;Global Chat → Submit link → New Story appears" style="rounded=1;whiteSpace=wrap;html=1;fillColor=#d5e8d4;strokeColor=#82b366;fontSize=13;fontStyle=1;align=left;spacingLeft=10;verticalAlign=middle;" parent="1" vertex="1">
                    <mxGeometry x="640" y="960" width="520" height="60" as="geometry"/>
                </mxCell>
                <mxCell id="flow-3" value="3️⃣ ITERATE&#xa;Builder discussion → Entropy ↓ → Health ↑ → Ranking changes" style="rounded=1;whiteSpace=wrap;html=1;fillColor=#ffe6cc;strokeColor=#d79b00;fontSize=13;fontStyle=1;align=left;spacingLeft=10;verticalAlign=middle;" parent="1" vertex="1">
                    <mxGeometry x="1180" y="960" width="640" height="60" as="geometry"/>
                </mxCell>
                <mxCell id="data-model-note" value="📊 DATA MODEL ENTITIES: story | thread | artifact | claim | contributor | entropy_log&#xa;💡 All screens share real-time updates via story.health_score (Hₙ) calculation" style="rounded=1;whiteSpace=wrap;html=1;fillColor=#fff2cc;strokeColor=#d6b656;fontSize=12;align=left;spacingLeft=15;verticalAlign=middle;" parent="1" vertex="1">
                    <mxGeometry x="80" y="1000" width="1760" height="40" as="geometry"/>
                </mxCell>
            </root>
        </mxGraphModel>
    </diagram>
    <diagram name="01 - Homepage" id="homepage">
        <mxGraphModel dx="1679" dy="1036" grid="1" gridSize="10" guides="1" tooltips="1" connect="1" arrows="1" fold="1" page="1" pageScale="1" pageWidth="1920" pageHeight="1080" math="0" shadow="0">
            <root>
                <mxCell id="0"/>
                <mxCell id="1" parent="0"/>
                <mxCell id="main-container" value="" style="rounded=0;whiteSpace=wrap;html=1;fillColor=#f5f5f5;strokeColor=#666666;" parent="1" vertex="1">
                    <mxGeometry width="1920" height="1080" as="geometry"/>
                </mxCell>
                <mxCell id="navbar" value="NAVIGATION BAR" style="rounded=0;whiteSpace=wrap;html=1;fillColor=#dae8fc;strokeColor=#6c8ebf;fontSize=14;fontStyle=1;align=left;verticalAlign=top;spacingLeft=20;spacingTop=10;" parent="1" vertex="1">
                    <mxGeometry width="1920" height="80" as="geometry"/>
                </mxCell>
                <mxCell id="nav-logo" value="📰 NewsRecursive" style="rounded=1;whiteSpace=wrap;html=1;fillColor=#ffffff;strokeColor=#666666;fontSize=18;fontStyle=1;" parent="1" vertex="1">
                    <mxGeometry x="20" y="20" width="200" height="40" as="geometry"/>
                </mxCell>
                <mxCell id="nav-search" value="🔍 Search stories..." style="rounded=1;whiteSpace=wrap;html=1;fillColor=#ffffff;strokeColor=#666666;align=left;spacingLeft=10;" parent="1" vertex="1">
                    <mxGeometry x="240" y="20" width="400" height="40" as="geometry"/>
                </mxCell>
                <mxCell id="nav-profile" value="👤 Profile" style="rounded=1;whiteSpace=wrap;html=1;fillColor=#ffffff;strokeColor=#666666;" parent="1" vertex="1">
                    <mxGeometry x="1680" y="20" width="100" height="40" as="geometry"/>
                </mxCell>
                <mxCell id="nav-notif" value="🔔 3" style="rounded=1;whiteSpace=wrap;html=1;fillColor=#fff2cc;strokeColor=#d6b656;" parent="1" vertex="1">
                    <mxGeometry x="1800" y="20" width="100" height="40" as="geometry"/>
                </mxCell>
                <mxCell id="controls-bar" value="CONTROLS" style="rounded=0;whiteSpace=wrap;html=1;fillColor=#e1d5e7;strokeColor=#9673a6;fontSize=12;fontStyle=1;align=left;verticalAlign=top;spacingLeft=20;spacingTop=5;" parent="1" vertex="1">
                    <mxGeometry y="80" width="1920" height="60" as="geometry"/>
                </mxCell>
                <mxCell id="mode-toggle" value="📋 List Mode | 📖 Magazine Mode" style="rounded=1;whiteSpace=wrap;html=1;fillColor=#ffffff;strokeColor=#666666;" parent="1" vertex="1">
                    <mxGeometry x="20" y="95" width="250" height="30" as="geometry"/>
                </mxCell>
                <mxCell id="sort-filter" value="Sort: 🔥 Trending | 🆕 Newest | ✅ Most Coherent" style="rounded=1;whiteSpace=wrap;html=1;fillColor=#ffffff;strokeColor=#666666;" parent="1" vertex="1">
                    <mxGeometry x="290" y="95" width="350" height="30" as="geometry"/>
                </mxCell>
                <mxCell id="filter-topics" value="Filter: 🏷️ Topics | 🌍 Regions | 🌀 Entropy Range" style="rounded=1;whiteSpace=wrap;html=1;fillColor=#ffffff;strokeColor=#666666;" parent="1" vertex="1">
                    <mxGeometry x="660" y="95" width="350" height="30" as="geometry"/>
                </mxCell>
                <mxCell id="content-area" value="" style="rounded=0;whiteSpace=wrap;html=1;fillColor=#ffffff;strokeColor=none;" parent="1" vertex="1">
                    <mxGeometry y="140" width="1520" height="940" as="geometry"/>
                </mxCell>
                <mxCell id="feed-title" value="📰 NEWS FEED" style="text;html=1;strokeColor=none;fillColor=none;align=left;verticalAlign=middle;whiteSpace=wrap;fontSize=20;fontStyle=1;" parent="1" vertex="1">
                    <mxGeometry x="40" y="160" width="200" height="40" as="geometry"/>
                </mxCell>
                <mxCell id="story-card-1" value="" style="rounded=1;whiteSpace=wrap;html=1;fillColor=#f8f9fa;strokeColor=#dee2e6;align=left;verticalAlign=top;" parent="1" vertex="1">
                    <mxGeometry x="40" y="220" width="700" height="180" as="geometry"/>
                </mxCell>
                <mxCell id="card1-title" value="🏛️ Federal Reserve Announces New Digital Currency Framework" style="text;html=1;strokeColor=none;fillColor=none;align=left;verticalAlign=top;whiteSpace=wrap;fontSize=16;fontStyle=1;spacingLeft=10;" parent="1" vertex="1">
                    <mxGeometry x="50" y="230" width="680" height="30" as="geometry"/>
                </mxCell>
                <mxCell id="card1-summary" value="Central bank outlines three-phase approach to CBDC implementation, with pilot programs beginning Q2 2026..." style="text;html=1;strokeColor=none;fillColor=none;align=left;verticalAlign=top;whiteSpace=wrap;fontSize=12;spacingLeft=10;" parent="1" vertex="1">
                    <mxGeometry x="50" y="265" width="680" height="40" as="geometry"/>
                </mxCell>
                <mxCell id="card1-health" value="🟢 Coherent" style="rounded=1;whiteSpace=wrap;html=1;fillColor=#d5e8d4;strokeColor=#82b366;fontSize=12;fontStyle=1;" parent="1" vertex="1">
                    <mxGeometry x="50" y="315" width="120" height="28" as="geometry"/>
                </mxCell>
                <mxCell id="card1-healthbar" value="" style="rounded=1;whiteSpace=wrap;html=1;fillColor=#e8e8e8;strokeColor=#999999;" parent="1" vertex="1">
                    <mxGeometry x="180" y="315" width="550" height="28" as="geometry"/>
                </mxCell>
                <mxCell id="card1-healthbar-fill" value="" style="rounded=1;whiteSpace=wrap;html=1;fillColor=#82b366;strokeColor=none;" parent="1" vertex="1">
                    <mxGeometry x="180" y="315" width="413" height="28" as="geometry"/>
                </mxCell>
                <mxCell id="card1-meta" value="👥 47 contributors | 🕐 Updated 2h ago | 💰 Tip" style="text;html=1;strokeColor=none;fillColor=none;align=left;verticalAlign=middle;whiteSpace=wrap;fontSize=11;spacingLeft=10;" parent="1" vertex="1">
                    <mxGeometry x="50" y="365" width="680" height="25" as="geometry"/>
                </mxCell>
                <mxCell id="story-card-2" value="" style="rounded=1;whiteSpace=wrap;html=1;fillColor=#f8f9fa;strokeColor=#dee2e6;align=left;verticalAlign=top;" parent="1" vertex="1">
                    <mxGeometry x="40" y="420" width="700" height="180" as="geometry"/>
                </mxCell>
                <mxCell id="card2-title" value="🌊 Climate Tipping Point: Antarctic Ice Sheet Collapse Accelerating" style="text;html=1;strokeColor=none;fillColor=none;align=left;verticalAlign=top;whiteSpace=wrap;fontSize=16;fontStyle=1;spacingLeft=10;" parent="1" vertex="1">
                    <mxGeometry x="50" y="430" width="680" height="30" as="geometry"/>
                </mxCell>
                <mxCell id="card2-summary" value="New satellite data reveals unprecedented melt rates in West Antarctic ice shelves, prompting urgent international response..." style="text;html=1;strokeColor=none;fillColor=none;align=left;verticalAlign=top;whiteSpace=wrap;fontSize=12;spacingLeft=10;" parent="1" vertex="1">
                    <mxGeometry x="50" y="465" width="680" height="40" as="geometry"/>
                </mxCell>
                <mxCell id="card2-health" value="🟡 Developing" style="rounded=1;whiteSpace=wrap;html=1;fillColor=#fff2cc;strokeColor=#d6b656;fontSize=12;fontStyle=1;" parent="1" vertex="1">
                    <mxGeometry x="50" y="515" width="120" height="28" as="geometry"/>
                </mxCell>
                <mxCell id="card2-healthbar" value="" style="rounded=1;whiteSpace=wrap;html=1;fillColor=#e8e8e8;strokeColor=#999999;" parent="1" vertex="1">
                    <mxGeometry x="180" y="515" width="550" height="28" as="geometry"/>
                </mxCell>
                <mxCell id="card2-healthbar-fill" value="" style="rounded=1;whiteSpace=wrap;html=1;fillColor=#d6b656;strokeColor=none;" parent="1" vertex="1">
                    <mxGeometry x="180" y="515" width="302" height="28" as="geometry"/>
                </mxCell>
                <mxCell id="card2-meta" value="👥 89 contributors | 🕐 Updated 45m ago | 💰 Tip" style="text;html=1;strokeColor=none;fillColor=none;align=left;verticalAlign=middle;whiteSpace=wrap;fontSize=11;spacingLeft=10;" parent="1" vertex="1">
                    <mxGeometry x="50" y="565" width="680" height="25" as="geometry"/>
                </mxCell>
                <mxCell id="story-card-3" value="" style="rounded=1;whiteSpace=wrap;html=1;fillColor=#f8f9fa;strokeColor=#dee2e6;align=left;verticalAlign=top;" parent="1" vertex="1">
                    <mxGeometry x="40" y="620" width="700" height="180" as="geometry"/>
                </mxCell>
                <mxCell id="card3-title" value="💊 Breakthrough Alzheimer&#39;s Treatment Shows 80% Efficacy in Phase III" style="text;html=1;strokeColor=none;fillColor=none;align=left;verticalAlign=top;whiteSpace=wrap;fontSize=16;fontStyle=1;spacingLeft=10;" parent="1" vertex="1">
                    <mxGeometry x="50" y="630" width="680" height="30" as="geometry"/>
                </mxCell>
                <mxCell id="card3-summary" value="Novel gene therapy targeting tau proteins demonstrates unprecedented success in clinical trials, FDA approval expected..." style="text;html=1;strokeColor=none;fillColor=none;align=left;verticalAlign=top;whiteSpace=wrap;fontSize=12;spacingLeft=10;" parent="1" vertex="1">
                    <mxGeometry x="50" y="665" width="680" height="40" as="geometry"/>
                </mxCell>
                <mxCell id="card3-health" value="🟢 Coherent" style="rounded=1;whiteSpace=wrap;html=1;fillColor=#d5e8d4;strokeColor=#82b366;fontSize=12;fontStyle=1;" parent="1" vertex="1">
                    <mxGeometry x="50" y="715" width="120" height="28" as="geometry"/>
                </mxCell>
                <mxCell id="card3-healthbar" value="" style="rounded=1;whiteSpace=wrap;html=1;fillColor=#e8e8e8;strokeColor=#999999;" parent="1" vertex="1">
                    <mxGeometry x="180" y="715" width="550" height="28" as="geometry"/>
                </mxCell>
                <mxCell id="card3-healthbar-fill" value="" style="rounded=1;whiteSpace=wrap;html=1;fillColor=#82b366;strokeColor=none;" parent="1" vertex="1">
                    <mxGeometry x="180" y="715" width="495" height="28" as="geometry"/>
                </mxCell>
                <mxCell id="card3-meta" value="👥 124 contributors | 🕐 Updated 10m ago | 💰 Tip" style="text;html=1;strokeColor=none;fillColor=none;align=left;verticalAlign=middle;whiteSpace=wrap;fontSize=11;spacingLeft=10;" parent="1" vertex="1">
                    <mxGeometry x="50" y="765" width="680" height="25" as="geometry"/>
                </mxCell>
                <mxCell id="feed2-title" value="📊 TRENDING NARRATIVES" style="text;html=1;strokeColor=none;fillColor=none;align=left;verticalAlign=middle;whiteSpace=wrap;fontSize=20;fontStyle=1;" parent="1" vertex="1">
                    <mxGeometry x="780" y="160" width="300" height="40" as="geometry"/>
                </mxCell>
                <mxCell id="trending-1" value="🤖 AI Lab Announces AGI Breakthrough&#xa;👥 312 contributors | 🟡 Developing" style="rounded=1;whiteSpace=wrap;html=1;fillColor=#f8f9fa;strokeColor=#dee2e6;align=left;verticalAlign=top;fontSize=12;spacingLeft=10;spacingTop=10;" parent="1" vertex="1">
                    <mxGeometry x="780" y="220" width="700" height="80" as="geometry"/>
                </mxCell>
                <mxCell id="trending-2" value="🚀 SpaceX Mars Colony Timeline Updated&#xa;👥 189 contributors | 🟢 Coherent" style="rounded=1;whiteSpace=wrap;html=1;fillColor=#f8f9fa;strokeColor=#dee2e6;align=left;verticalAlign=top;fontSize=12;spacingLeft=10;spacingTop=10;" parent="1" vertex="1">
                    <mxGeometry x="780" y="320" width="700" height="80" as="geometry"/>
                </mxCell>
                <mxCell id="trending-3" value="⚡ Grid-Scale Fusion Plant Goes Online&#xa;👥 267 contributors | 🟡 Developing" style="rounded=1;whiteSpace=wrap;html=1;fillColor=#f8f9fa;strokeColor=#dee2e6;align=left;verticalAlign=top;fontSize=12;spacingLeft=10;spacingTop=10;" parent="1" vertex="1">
                    <mxGeometry x="780" y="420" width="700" height="80" as="geometry"/>
                </mxCell>
                <mxCell id="trending-4" value="🏛️ EU Passes Comprehensive AI Rights Act&#xa;👥 445 contributors | 🟢 Coherent" style="rounded=1;whiteSpace=wrap;html=1;fillColor=#f8f9fa;strokeColor=#dee2e6;align=left;verticalAlign=top;fontSize=12;spacingLeft=10;spacingTop=10;" parent="1" vertex="1">
                    <mxGeometry x="780" y="520" width="700" height="80" as="geometry"/>
                </mxCell>
                <mxCell id="chat-drawer" value="GLOBAL CHAT" style="rounded=1;whiteSpace=wrap;html=1;fillColor=#dae8fc;strokeColor=#6c8ebf;align=left;verticalAlign=top;fontSize=14;fontStyle=1;spacingLeft=15;spacingTop=10;" parent="1" vertex="1">
                    <mxGeometry x="1540" y="140" width="380" height="940" as="geometry"/>
                </mxCell>
                <mxCell id="chat-header" value="💬 Ask or Submit a Story Link" style="text;html=1;strokeColor=none;fillColor=none;align=center;verticalAlign=middle;whiteSpace=wrap;fontSize=13;fontStyle=1;" parent="1" vertex="1">
                    <mxGeometry x="1550" y="180" width="360" height="30" as="geometry"/>
                </mxCell>
                <mxCell id="chat-messages" value="Recent Chats:&#xa;&#xa;🤖 Newstr Bot: &quot;I found 3 similar stories about Fed policy...&quot;&#xa;&#xa;You: &quot;https://nyt.com/cbdc-framework&quot;&#xa;&#xa;🤖 Newstr Bot: &quot;Would you like to:&#xa;  • Create new story&#xa;  • Merge with existing&#xa;  • Add as source to #fed-policy&quot;&#xa;&#xa;---&#xa;&#xa;You: &quot;What&#39;s happening with Antarctica?&quot;&#xa;&#xa;🤖 Newstr Bot: &quot;Story #4729 has 89 contributors discussing ice sheet collapse. View →&quot;" style="rounded=1;whiteSpace=wrap;html=1;fillColor=#ffffff;strokeColor=#999999;align=left;verticalAlign=top;fontSize=11;spacingLeft=10;spacingTop=10;" parent="1" vertex="1">
                    <mxGeometry x="1550" y="220" width="360" height="700" as="geometry"/>
                </mxCell>
                <mxCell id="chat-input" value="💬 Type here or paste a link..." style="rounded=1;whiteSpace=wrap;html=1;fillColor=#ffffff;strokeColor=#666666;align=left;verticalAlign=middle;fontSize=12;spacingLeft=10;" parent="1" vertex="1">
                    <mxGeometry x="1550" y="940" width="300" height="50" as="geometry"/>
                </mxCell>
                <mxCell id="chat-send" value="Send" style="rounded=1;whiteSpace=wrap;html=1;fillColor=#60a5fa;strokeColor=#3b82f6;fontColor=#ffffff;fontStyle=1;" parent="1" vertex="1">
                    <mxGeometry x="1860" y="940" width="50" height="50" as="geometry"/>
                </mxCell>
                <mxCell id="chat-toggle" value="🔽 Close" style="rounded=1;whiteSpace=wrap;html=1;fillColor=#e5e7eb;strokeColor=#999999;fontSize=11;" parent="1" vertex="1">
                    <mxGeometry x="1550" y="1000" width="360" height="30" as="geometry"/>
                </mxCell>
                <mxCell id="legend" value="INTERACTION NOTES:&#xa;&#xa;• Story Cards → Click to open /story/:id&#xa;• Narrative Health States:&#xa;  ⚠️ Forming (0–0.4) | 🟡 Developing (0.4–0.7) | 🟢 Coherent (0.7–1.0)&#xa;• Color Bars → Visual health indicator (red → yellow → green)&#xa;• Hover on bar → See detailed score + trend sparkline&#xa;• Tooltip → &quot;Narrative Health shows how coherent and verified a story is&quot;&#xa;• Tip Button → Micro-tipping contributors&#xa;• Chat → Auto-suggest topics on link paste&#xa;• Mode Toggle → Switch List/Magazine view" style="rounded=1;whiteSpace=wrap;html=1;fillColor=#fff2cc;strokeColor=#d6b656;align=left;verticalAlign=top;fontSize=11;spacingLeft=10;spacingTop=10;" parent="1" vertex="1">
                    <mxGeometry x="780" y="620" width="700" height="180" as="geometry"/>
                </mxCell>
            </root>
        </mxGraphModel>
    </diagram>
    <diagram name="02 - Story Page" id="story-page">
        <mxGraphModel dx="1679" dy="1036" grid="1" gridSize="10" guides="1" tooltips="1" connect="1" arrows="1" fold="1" page="1" pageScale="1" pageWidth="1920" pageHeight="1080" math="0" shadow="0">
            <root>
                <mxCell id="0"/>
                <mxCell id="1" parent="0"/>
                <mxCell id="main-container" value="" style="rounded=0;whiteSpace=wrap;html=1;fillColor=#f5f5f5;strokeColor=#666666;" parent="1" vertex="1">
                    <mxGeometry width="1920" height="1080" as="geometry"/>
                </mxCell>
                <mxCell id="navbar" value="NAVIGATION BAR" style="rounded=0;whiteSpace=wrap;html=1;fillColor=#dae8fc;strokeColor=#6c8ebf;fontSize=14;fontStyle=1;align=left;verticalAlign=top;spacingLeft=20;spacingTop=10;" parent="1" vertex="1">
                    <mxGeometry width="1920" height="80" as="geometry"/>
                </mxCell>
                <mxCell id="nav-back" value="← Back to Feed" style="rounded=1;whiteSpace=wrap;html=1;fillColor=#ffffff;strokeColor=#666666;" parent="1" vertex="1">
                    <mxGeometry x="20" y="20" width="150" height="40" as="geometry"/>
                </mxCell>
                <mxCell id="nav-logo" value="📰 NewsRecursive" style="rounded=1;whiteSpace=wrap;html=1;fillColor=#ffffff;strokeColor=#666666;fontSize=18;fontStyle=1;" parent="1" vertex="1">
                    <mxGeometry x="190" y="20" width="200" height="40" as="geometry"/>
                </mxCell>
                <mxCell id="nav-actions" value="🔖 Save | 📤 Share | ⭐ Follow" style="rounded=1;whiteSpace=wrap;html=1;fillColor=#ffffff;strokeColor=#666666;" parent="1" vertex="1">
                    <mxGeometry x="1500" y="20" width="280" height="40" as="geometry"/>
                </mxCell>
                <mxCell id="nav-profile" value="👤 Profile" style="rounded=1;whiteSpace=wrap;html=1;fillColor=#ffffff;strokeColor=#666666;" parent="1" vertex="1">
                    <mxGeometry x="1800" y="20" width="100" height="40" as="geometry"/>
                </mxCell>
                <mxCell id="main-column" value="" style="rounded=0;whiteSpace=wrap;html=1;fillColor=#ffffff;strokeColor=none;" parent="1" vertex="1">
                    <mxGeometry x="40" y="100" width="1180" height="960" as="geometry"/>
                </mxCell>
                <mxCell id="story-header" value="" style="rounded=1;whiteSpace=wrap;html=1;fillColor=#f8f9fa;strokeColor=#dee2e6;align=left;verticalAlign=top;" parent="1" vertex="1">
                    <mxGeometry x="60" y="120" width="1140" height="200" as="geometry"/>
                </mxCell>
                <mxCell id="story-title" value="🏛️ Federal Reserve Announces New Digital Currency Framework" style="text;html=1;strokeColor=none;fillColor=none;align=left;verticalAlign=top;whiteSpace=wrap;fontSize=24;fontStyle=1;spacingLeft=15;spacingTop=10;" parent="1" vertex="1">
                    <mxGeometry x="70" y="130" width="1120" height="50" as="geometry"/>
                </mxCell>
                <mxCell id="story-meta" value="📅 Published: Oct 3, 2025 | 🕐 Last Updated: 2 hours ago | ✍️ 47 Contributors | 👁️ 12.4k Views" style="text;html=1;strokeColor=none;fillColor=none;align=left;verticalAlign=middle;whiteSpace=wrap;fontSize=12;spacingLeft=15;" parent="1" vertex="1">
                    <mxGeometry x="70" y="185" width="1120" height="25" as="geometry"/>
                </mxCell>
                <mxCell id="story-summary" value="SUMMARY: The Federal Reserve today unveiled a comprehensive three-phase framework for implementing a Central Bank Digital Currency (CBDC). The plan includes pilot programs beginning in Q2 2026, with full rollout targeted for 2028. Key stakeholders include major banking institutions, tech companies, and international monetary organizations." style="text;html=1;strokeColor=none;fillColor=none;align=left;verticalAlign=top;whiteSpace=wrap;fontSize=13;spacingLeft=15;spacingTop=5;" parent="1" vertex="1">
                    <mxGeometry x="70" y="220" width="1120" height="80" as="geometry"/>
                </mxCell>
                <mxCell id="timeline-section" value="VERIFIED TIMELINE" style="rounded=1;whiteSpace=wrap;html=1;fillColor=#e1d5e7;strokeColor=#9673a6;fontSize=16;fontStyle=1;align=left;verticalAlign=top;spacingLeft=15;spacingTop=10;" parent="1" vertex="1">
                    <mxGeometry x="60" y="340" width="1140" height="400" as="geometry"/>
                </mxCell>
                <mxCell id="timeline-1" value="Oct 3, 2025 - 10:00 AM EST" style="rounded=1;whiteSpace=wrap;html=1;fillColor=#dae8fc;strokeColor=#6c8ebf;align=left;verticalAlign=top;fontSize=12;fontStyle=1;spacingLeft=10;spacingTop=5;" parent="1" vertex="1">
                    <mxGeometry x="80" y="370" width="1100" height="100" as="geometry"/>
                </mxCell>
                <mxCell id="timeline-1-content" value="🎤 Fed Chair Powell announces CBDC framework at press conference&#xa;📄 Official whitepaper released (127 pages)&#xa;🔗 Sources: [Fed.gov] [Reuters] [Bloomberg]&#xa;✅ Verified by 23 contributors" style="text;html=1;strokeColor=none;fillColor=none;align=left;verticalAlign=top;whiteSpace=wrap;fontSize=11;spacingLeft=10;spacingTop=5;" parent="1" vertex="1">
                    <mxGeometry x="90" y="400" width="1080" height="60" as="geometry"/>
                </mxCell>
                <mxCell id="timeline-2" value="Oct 3, 2025 - 2:30 PM EST" style="rounded=1;whiteSpace=wrap;html=1;fillColor=#dae8fc;strokeColor=#6c8ebf;align=left;verticalAlign=top;fontSize=12;fontStyle=1;spacingLeft=10;spacingTop=5;" parent="1" vertex="1">
                    <mxGeometry x="80" y="490" width="1100" height="100" as="geometry"/>
                </mxCell>
                <mxCell id="timeline-2-content" value="🏦 Major banks (JPM, BoA, Citi) release joint statement of support&#xa;💬 Banking Coalition pledges $2.3B in infrastructure investment&#xa;🔗 Sources: [WSJ] [Bank press releases]&#xa;✅ Verified by 18 contributors" style="text;html=1;strokeColor=none;fillColor=none;align=left;verticalAlign=top;whiteSpace=wrap;fontSize=11;spacingLeft=10;spacingTop=5;" parent="1" vertex="1">
                    <mxGeometry x="90" y="520" width="1080" height="60" as="geometry"/>
                </mxCell>
                <mxCell id="timeline-3" value="Oct 4, 2025 - 9:00 AM EST" style="rounded=1;whiteSpace=wrap;html=1;fillColor=#dae8fc;strokeColor=#6c8ebf;align=left;verticalAlign=top;fontSize=12;fontStyle=1;spacingLeft=10;spacingTop=5;" parent="1" vertex="1">
                    <mxGeometry x="80" y="610" width="1100" height="100" as="geometry"/>
                </mxCell>
                <mxCell id="timeline-3-content" value="⚖️ Sen. Warren raises privacy concerns in Senate hearing&#xa;🗣️ Debate begins on regulatory framework and oversight&#xa;🔗 Sources: [C-SPAN] [Congressional Record]&#xa;✅ Verified by 31 contributors" style="text;html=1;strokeColor=none;fillColor=none;align=left;verticalAlign=top;whiteSpace=wrap;fontSize=11;spacingLeft=10;spacingTop=5;" parent="1" vertex="1">
                    <mxGeometry x="90" y="640" width="1080" height="60" as="geometry"/>
                </mxCell>
                <mxCell id="artifacts-section" value="KEY ARTIFACTS" style="rounded=1;whiteSpace=wrap;html=1;fillColor=#fff2cc;strokeColor=#d6b656;fontSize=16;fontStyle=1;align=left;verticalAlign=top;spacingLeft=15;spacingTop=10;" parent="1" vertex="1">
                    <mxGeometry x="60" y="760" width="1140" height="280" as="geometry"/>
                </mxCell>
                <mxCell id="artifact-1" value="📄 Fed Whitepaper [PDF, 127 pages]" style="rounded=1;whiteSpace=wrap;html=1;fillColor=#ffffff;strokeColor=#999999;fontSize=12;align=left;spacingLeft=10;" parent="1" vertex="1">
                    <mxGeometry x="80" y="800" width="340" height="60" as="geometry"/>
                </mxCell>
                <mxCell id="artifact-2" value="🎥 Powell Press Conference [Video, 47:32]" style="rounded=1;whiteSpace=wrap;html=1;fillColor=#ffffff;strokeColor=#999999;fontSize=12;align=left;spacingLeft=10;" parent="1" vertex="1">
                    <mxGeometry x="440" y="800" width="340" height="60" as="geometry"/>
                </mxCell>
                <mxCell id="artifact-3" value="📊 Technical Architecture Diagram" style="rounded=1;whiteSpace=wrap;html=1;fillColor=#ffffff;strokeColor=#999999;fontSize=12;align=left;spacingLeft=10;" parent="1" vertex="1">
                    <mxGeometry x="800" y="800" width="380" height="60" as="geometry"/>
                </mxCell>
                <mxCell id="artifact-4" value="🐦 @federalreserve announcement tweet [12.3k retweets]" style="rounded=1;whiteSpace=wrap;html=1;fillColor=#ffffff;strokeColor=#999999;fontSize=12;align=left;spacingLeft=10;" parent="1" vertex="1">
                    <mxGeometry x="80" y="880" width="340" height="60" as="geometry"/>
                </mxCell>
                <mxCell id="artifact-5" value="📰 Bloomberg Analysis: Impact on Traditional Banking" style="rounded=1;whiteSpace=wrap;html=1;fillColor=#ffffff;strokeColor=#999999;fontSize=12;align=left;spacingLeft=10;" parent="1" vertex="1">
                    <mxGeometry x="440" y="880" width="340" height="60" as="geometry"/>
                </mxCell>
                <mxCell id="artifact-6" value="📈 Market Reaction: Bank Stocks -2.3% avg." style="rounded=1;whiteSpace=wrap;html=1;fillColor=#ffffff;strokeColor=#999999;fontSize=12;align=left;spacingLeft=10;" parent="1" vertex="1">
                    <mxGeometry x="800" y="880" width="380" height="60" as="geometry"/>
                </mxCell>
                <mxCell id="artifacts-note" value="💡 All artifacts verified and timestamped | 📎 Add new artifact | 🔍 Search within artifacts" style="text;html=1;strokeColor=none;fillColor=none;align=left;verticalAlign=middle;whiteSpace=wrap;fontSize=11;spacingLeft=15;" parent="1" vertex="1">
                    <mxGeometry x="80" y="960" width="1100" height="30" as="geometry"/>
                </mxCell>
                <mxCell id="sidebar" value="SIDEBAR" style="rounded=0;whiteSpace=wrap;html=1;fillColor=#e1d5e7;strokeColor=#9673a6;fontSize=14;fontStyle=1;align=left;verticalAlign=top;spacingLeft=15;spacingTop=10;" parent="1" vertex="1">
                    <mxGeometry x="1240" y="100" width="660" height="960" as="geometry"/>
                </mxCell>
                <mxCell id="health-meter" value="NARRATIVE HEALTH" style="rounded=1;whiteSpace=wrap;html=1;fillColor=#d5e8d4;strokeColor=#82b366;fontSize=14;fontStyle=1;align=left;verticalAlign=top;spacingLeft=15;spacingTop=10;" parent="1" vertex="1">
                    <mxGeometry x="1260" y="130" width="620" height="200" as="geometry"/>
                </mxCell>
                <mxCell id="health-score" value="COHERENCE INDEX: 0.78" style="text;html=1;strokeColor=none;fillColor=none;align=center;verticalAlign=middle;whiteSpace=wrap;fontSize=32;fontStyle=1;fontColor=#2d6a2e;" parent="1" vertex="1">
                    <mxGeometry x="1280" y="170" width="580" height="50" as="geometry"/>
                </mxCell>
                <mxCell id="health-bar-container" value="" style="rounded=0;whiteSpace=wrap;html=1;fillColor=#f5f5f5;strokeColor=#82b366;" parent="1" vertex="1">
                    <mxGeometry x="1280" y="230" width="580" height="30" as="geometry"/>
                </mxCell>
                <mxCell id="health-bar-fill" value="" style="rounded=0;whiteSpace=wrap;html=1;fillColor=#82b366;strokeColor=none;" parent="1" vertex="1">
                    <mxGeometry x="1280" y="230" width="452" height="30" as="geometry"/>
                </mxCell>
                <mxCell id="health-label" value="🔴 Chaotic → 🔵 Maturing → 🟢 Coherent → ⭐ Canonical" style="text;html=1;strokeColor=none;fillColor=none;align=center;verticalAlign=middle;whiteSpace=wrap;fontSize=11;" parent="1" vertex="1">
                    <mxGeometry x="1280" y="270" width="580" height="25" as="geometry"/>
                </mxCell>
                <mxCell id="health-tooltip" value="ℹ️ Higher coherence = Lower entropy&#xa;This story has moved from 0.89 → 0.78 (improved by 12%)&#xa;Contributors have reduced ambiguity through 247 verified claims" style="text;html=1;strokeColor=none;fillColor=none;align=left;verticalAlign=top;whiteSpace=wrap;fontSize=10;spacingLeft=10;spacingTop=5;" parent="1" vertex="1">
                    <mxGeometry x="1280" y="295" width="580" height="25" as="geometry"/>
                </mxCell>
                <mxCell id="backstage-updates" value="LATEST BACKSTAGE UPDATES" style="rounded=1;whiteSpace=wrap;html=1;fillColor=#dae8fc;strokeColor=#6c8ebf;fontSize=14;fontStyle=1;align=left;verticalAlign=top;spacingLeft=15;spacingTop=10;" parent="1" vertex="1">
                    <mxGeometry x="1260" y="350" width="620" height="240" as="geometry"/>
                </mxCell>
                <mxCell id="update-1" value="🧩 New Evidence: CBO cost analysis added&#xa;👤 @economistJane | 🕐 15 min ago" style="rounded=1;whiteSpace=wrap;html=1;fillColor=#ffffff;strokeColor=#999999;fontSize=11;align=left;verticalAlign=top;spacingLeft=10;spacingTop=5;" parent="1" vertex="1">
                    <mxGeometry x="1280" y="390" width="580" height="50" as="geometry"/>
                </mxCell>
                <mxCell id="update-2" value="🧠 Analysis: Privacy framework comparison with EU GDPR&#xa;👤 @cryptolawyer | 🕐 42 min ago" style="rounded=1;whiteSpace=wrap;html=1;fillColor=#ffffff;strokeColor=#999999;fontSize=11;align=left;verticalAlign=top;spacingLeft=10;spacingTop=5;" parent="1" vertex="1">
                    <mxGeometry x="1280" y="455" width="580" height="50" as="geometry"/>
                </mxCell>
                <mxCell id="update-3" value="🏛️ Official Response: Treasury Dept statement released&#xa;👤 @fedwatcher | 🕐 1 hour ago" style="rounded=1;whiteSpace=wrap;html=1;fillColor=#ffffff;strokeColor=#999999;fontSize=11;align=left;verticalAlign=top;spacingLeft=10;spacingTop=5;" parent="1" vertex="1">
                    <mxGeometry x="1280" y="520" width="580" height="50" as="geometry"/>
                </mxCell>
                <mxCell id="builder-cta" value="🧱 GO TO BUILDER →" style="rounded=1;whiteSpace=wrap;html=1;fillColor=#60a5fa;strokeColor=#3b82f6;fontColor=#ffffff;fontSize=14;fontStyle=1;" parent="1" vertex="1">
                    <mxGeometry x="1280" y="580" width="580" height="50" as="geometry"/>
                </mxCell>
                <mxCell id="actions-section" value="ACTIONS" style="rounded=1;whiteSpace=wrap;html=1;fillColor=#fff2cc;strokeColor=#d6b656;fontSize=14;fontStyle=1;align=left;verticalAlign=top;spacingLeft=15;spacingTop=10;" parent="1" vertex="1">
                    <mxGeometry x="1260" y="610" width="620" height="160" as="geometry"/>
                </mxCell>
                <mxCell id="tip-button" value="💰 TIP CONTRIBUTORS" style="rounded=1;whiteSpace=wrap;html=1;fillColor=#82b366;strokeColor=#2d6a2e;fontColor=#ffffff;fontSize=13;fontStyle=1;" parent="1" vertex="1">
                    <mxGeometry x="1280" y="650" width="270" height="50" as="geometry"/>
                </mxCell>
                <mxCell id="stake-button" value="⚡ STAKE ON ACCURACY" style="rounded=1;whiteSpace=wrap;html=1;fillColor=#d79b00;strokeColor=#b87503;fontColor=#ffffff;fontSize=13;fontStyle=1;" parent="1" vertex="1">
                    <mxGeometry x="1570" y="650" width="290" height="50" as="geometry"/>
                </mxCell>
                <mxCell id="actions-stats" value="💵 Total tips: $2,347 | 🎯 Total staked: $18,450 | ⭐ Avg contributor rating: 4.7/5" style="text;html=1;strokeColor=none;fillColor=none;align=center;verticalAlign=middle;whiteSpace=wrap;fontSize=10;" parent="1" vertex="1">
                    <mxGeometry x="1280" y="715" width="580" height="40" as="geometry"/>
                </mxCell>
                <mxCell id="chat-section" value="ASK ABOUT THIS STORY" style="rounded=1;whiteSpace=wrap;html=1;fillColor=#e1d5e7;strokeColor=#9673a6;fontSize=14;fontStyle=1;align=left;verticalAlign=top;spacingLeft=15;spacingTop=10;" parent="1" vertex="1">
                    <mxGeometry x="1260" y="790" width="620" height="180" as="geometry"/>
                </mxCell>
                <mxCell id="chat-messages-story" value="💬 Recent Questions:&#xa;&#xa;Q: &quot;How does this compare to China&#39;s digital yuan?&quot;&#xa;A: See Analysis Thread #47 in Builder →&#xa;&#xa;Q: &quot;When will pilot programs start?&quot;&#xa;A: Q2 2026 per official timeline (source: Fed whitepaper p.89)" style="rounded=1;whiteSpace=wrap;html=1;fillColor=#ffffff;strokeColor=#999999;fontSize=11;align=left;verticalAlign=top;spacingLeft=10;spacingTop=5;" parent="1" vertex="1">
                    <mxGeometry x="1280" y="830" width="580" height="100" as="geometry"/>
                </mxCell>
                <mxCell id="chat-input-story" value="💬 Ask a question..." style="rounded=1;whiteSpace=wrap;html=1;fillColor=#ffffff;strokeColor=#666666;align=left;verticalAlign=middle;fontSize=12;spacingLeft=10;" parent="1" vertex="1">
                    <mxGeometry x="1280" y="940" width="520" height="40" as="geometry"/>
                </mxCell>
                <mxCell id="chat-send-story" value="Send" style="rounded=1;whiteSpace=wrap;html=1;fillColor=#60a5fa;strokeColor=#3b82f6;fontColor=#ffffff;fontStyle=1;" parent="1" vertex="1">
                    <mxGeometry x="1810" y="940" width="50" height="40" as="geometry"/>
                </mxCell>
                <mxCell id="related-section" value="CROSS-NARRATIVES" style="rounded=1;whiteSpace=wrap;html=1;fillColor=#dae8fc;strokeColor=#6c8ebf;fontSize=14;fontStyle=1;align=left;verticalAlign=top;spacingLeft=15;spacingTop=10;" parent="1" vertex="1">
                    <mxGeometry x="1260" y="990" width="620" height="150" as="geometry"/>
                </mxCell>
                <mxCell id="related-1" value="🔗 China&#39;s Digital Yuan Evolution (78% similarity)" style="rounded=1;whiteSpace=wrap;html=1;fillColor=#ffffff;strokeColor=#999999;fontSize=11;align=left;spacingLeft=10;" parent="1" vertex="1">
                    <mxGeometry x="1280" y="1030" width="580" height="30" as="geometry"/>
                </mxCell>
                <mxCell id="related-2" value="🔗 Privacy Debates in Financial Technology (65% similarity)" style="rounded=1;whiteSpace=wrap;html=1;fillColor=#ffffff;strokeColor=#999999;fontSize=11;align=left;spacingLeft=10;" parent="1" vertex="1">
                    <mxGeometry x="1280" y="1070" width="580" height="30" as="geometry"/>
                </mxCell>
                <mxCell id="related-3" value="🔗 IMF Global CBDC Standards Initiative (71% similarity)" style="rounded=1;whiteSpace=wrap;html=1;fillColor=#ffffff;strokeColor=#999999;fontSize=11;align=left;spacingLeft=10;" parent="1" vertex="1">
                    <mxGeometry x="1280" y="1110" width="580" height="30" as="geometry"/>
                </mxCell>
            </root>
        </mxGraphModel>
    </diagram>
    <diagram name="03 - Builder Page" id="builder-page">
        <mxGraphModel dx="1679" dy="1036" grid="1" gridSize="10" guides="1" tooltips="1" connect="1" arrows="1" fold="1" page="1" pageScale="1" pageWidth="1920" pageHeight="1080" math="0" shadow="0">
            <root>
                <mxCell id="0"/>
                <mxCell id="1" parent="0"/>
                <mxCell id="main-container" value="" style="rounded=0;whiteSpace=wrap;html=1;fillColor=#f5f5f5;strokeColor=#666666;" parent="1" vertex="1">
                    <mxGeometry width="1920" height="1080" as="geometry"/>
                </mxCell>
                <mxCell id="navbar" value="BUILDER NAVIGATION" style="rounded=0;whiteSpace=wrap;html=1;fillColor=#ffe6cc;strokeColor=#d79b00;fontSize=14;fontStyle=1;align=left;verticalAlign=top;spacingLeft=20;spacingTop=10;" parent="1" vertex="1">
                    <mxGeometry width="1920" height="80" as="geometry"/>
                </mxCell>
                <mxCell id="nav-back" value="← Back to Story" style="rounded=1;whiteSpace=wrap;html=1;fillColor=#ffffff;strokeColor=#666666;" parent="1" vertex="1">
                    <mxGeometry x="20" y="20" width="150" height="40" as="geometry"/>
                </mxCell>
                <mxCell id="nav-story-title" value="🏛️ Federal Reserve CBDC Framework - BUILDER MODE" style="rounded=1;whiteSpace=wrap;html=1;fillColor=#ffffff;strokeColor=#666666;fontSize=16;fontStyle=1;" parent="1" vertex="1">
                    <mxGeometry x="190" y="20" width="600" height="40" as="geometry"/>
                </mxCell>
                <mxCell id="nav-actions" value="➕ New Thread | 📎 Add Artifact | 💾 Save Draft" style="rounded=1;whiteSpace=wrap;html=1;fillColor=#ffffff;strokeColor=#666666;" parent="1" vertex="1">
                    <mxGeometry x="1500" y="20" width="280" height="40" as="geometry"/>
                </mxCell>
                <mxCell id="nav-profile" value="👤 Profile" style="rounded=1;whiteSpace=wrap;html=1;fillColor=#ffffff;strokeColor=#666666;" parent="1" vertex="1">
                    <mxGeometry x="1800" y="20" width="100" height="40" as="geometry"/>
                </mxCell>
                <mxCell id="header-summary" value="" style="rounded=0;whiteSpace=wrap;html=1;fillColor=#e1d5e7;strokeColor=#9673a6;align=left;verticalAlign=top;" parent="1" vertex="1">
                    <mxGeometry y="80" width="1920" height="60" as="geometry"/>
                </mxCell>
                <mxCell id="health-summary" value="📊 Health Score: 0.78 (🟢 Coherent)" style="text;html=1;strokeColor=none;fillColor=none;align=left;verticalAlign=middle;whiteSpace=wrap;fontSize=14;fontStyle=1;spacingLeft=20;" parent="1" vertex="1">
                    <mxGeometry x="20" y="90" width="300" height="40" as="geometry"/>
                </mxCell>
                <mxCell id="participants-summary" value="👥 47 Contributors Active" style="text;html=1;strokeColor=none;fillColor=none;align=left;verticalAlign=middle;whiteSpace=wrap;fontSize=14;fontStyle=1;spacingLeft=20;" parent="1" vertex="1">
                    <mxGeometry x="340" y="90" width="250" height="40" as="geometry"/>
                </mxCell>
                <mxCell id="activity-summary" value="🕐 Last Activity: 15 min ago" style="text;html=1;strokeColor=none;fillColor=none;align=left;verticalAlign=middle;whiteSpace=wrap;fontSize=14;fontStyle=1;spacingLeft=20;" parent="1" vertex="1">
                    <mxGeometry x="610" y="90" width="280" height="40" as="geometry"/>
                </mxCell>
                <mxCell id="entropy-delta" value="📉 Entropy Δ: -0.11 (Last 24h)" style="text;html=1;strokeColor=none;fillColor=none;align=left;verticalAlign=middle;whiteSpace=wrap;fontSize=14;fontStyle=1;fontColor=#2d6a2e;spacingLeft=20;" parent="1" vertex="1">
                    <mxGeometry x="910" y="90" width="300" height="40" as="geometry"/>
                </mxCell>
                <mxCell id="main-area" value="" style="rounded=0;whiteSpace=wrap;html=1;fillColor=#ffffff;strokeColor=none;" parent="1" vertex="1">
                    <mxGeometry x="20" y="160" width="1280" height="900" as="geometry"/>
                </mxCell>
                <mxCell id="discussion-title" value="🧱 DISCUSSION BOARD" style="text;html=1;strokeColor=none;fillColor=none;align=left;verticalAlign=middle;whiteSpace=wrap;fontSize=20;fontStyle=1;" parent="1" vertex="1">
                    <mxGeometry x="40" y="170" width="300" height="40" as="geometry"/>
                </mxCell>
                <mxCell id="thread-controls" value="🔍 Search threads | 🏷️ Filter by tag | 📊 Sort: Recent | Most Active | Highest Impact" style="rounded=1;whiteSpace=wrap;html=1;fillColor=#f8f9fa;strokeColor=#dee2e6;fontSize=11;align=left;spacingLeft=10;" parent="1" vertex="1">
                    <mxGeometry x="40" y="220" width="1240" height="30" as="geometry"/>
                </mxCell>
                <mxCell id="thread-category-1" value="🧩 EVIDENCE / SOURCES" style="rounded=1;whiteSpace=wrap;html=1;fillColor=#dae8fc;strokeColor=#6c8ebf;fontSize=16;fontStyle=1;align=left;verticalAlign=top;spacingLeft=15;spacingTop=10;" parent="1" vertex="1">
                    <mxGeometry x="40" y="270" width="1240" height="150" as="geometry"/>
                </mxCell>
                <mxCell id="evidence-thread-1" value="📄 Official Fed Whitepaper Analysis" style="rounded=1;whiteSpace=wrap;html=1;fillColor=#ffffff;strokeColor=#999999;fontSize=13;fontStyle=1;align=left;verticalAlign=top;spacingLeft=10;spacingTop=5;" parent="1" vertex="1">
                    <mxGeometry x="60" y="310" width="580" height="80" as="geometry"/>
                </mxCell>
                <mxCell id="evidence-thread-1-meta" value="💬 127 posts | 👁️ 3,421 views | 🕐 Updated 15 min ago&#xa;🏷️ Tags: Primary Source | Official Document | Technical&#xa;Top contributor: @economistJane ⭐⭐⭐⭐⭐" style="text;html=1;strokeColor=none;fillColor=none;align=left;verticalAlign=top;whiteSpace=wrap;fontSize=10;spacingLeft=10;spacingTop=5;" parent="1" vertex="1">
                    <mxGeometry x="70" y="340" width="560" height="40" as="geometry"/>
                </mxCell>
                <mxCell id="evidence-thread-2" value="🎥 Powell Press Conference - Key Timestamps" style="rounded=1;whiteSpace=wrap;html=1;fillColor=#ffffff;strokeColor=#999999;fontSize=13;fontStyle=1;align=left;verticalAlign=top;spacingLeft=10;spacingTop=5;" parent="1" vertex="1">
                    <mxGeometry x="660" y="310" width="600" height="80" as="geometry"/>
                </mxCell>
                <mxCell id="evidence-thread-2-meta" value="💬 89 posts | 👁️ 2,156 views | 🕐 Updated 42 min ago&#xa;🏷️ Tags: Video | Transcript | Q&amp;A&#xa;Top contributor: @fedwatcher ⭐⭐⭐⭐" style="text;html=1;strokeColor=none;fillColor=none;align=left;verticalAlign=top;whiteSpace=wrap;fontSize=10;spacingLeft=10;spacingTop=5;" parent="1" vertex="1">
                    <mxGeometry x="670" y="340" width="580" height="40" as="geometry"/>
                </mxCell>
                <mxCell id="thread-category-2" value="🧠 ANALYSIS / INTERPRETATION" style="rounded=1;whiteSpace=wrap;html=1;fillColor=#d5e8d4;strokeColor=#82b366;fontSize=16;fontStyle=1;align=left;verticalAlign=top;spacingLeft=15;spacingTop=10;" parent="1" vertex="1">
                    <mxGeometry x="40" y="440" width="1240" height="150" as="geometry"/>
                </mxCell>
                <mxCell id="analysis-thread-1" value="⚖️ Privacy Framework vs. EU GDPR Comparison" style="rounded=1;whiteSpace=wrap;html=1;fillColor=#ffffff;strokeColor=#999999;fontSize=13;fontStyle=1;align=left;verticalAlign=top;spacingLeft=10;spacingTop=5;" parent="1" vertex="1">
                    <mxGeometry x="60" y="480" width="580" height="80" as="geometry"/>
                </mxCell>
                <mxCell id="analysis-thread-1-meta" value="💬 203 posts | 👁️ 5,892 views | 🕐 Updated 1 hour ago&#xa;🏷️ Tags: Comparative Analysis | Privacy | Legal&#xa;Top contributor: @cryptolawyer ⭐⭐⭐⭐⭐" style="text;html=1;strokeColor=none;fillColor=none;align=left;verticalAlign=top;whiteSpace=wrap;fontSize=10;spacingLeft=10;spacingTop=5;" parent="1" vertex="1">
                    <mxGeometry x="70" y="510" width="560" height="40" as="geometry"/>
                </mxCell>
                <mxCell id="analysis-thread-2" value="📊 Economic Impact Modeling: Banking Sector" style="rounded=1;whiteSpace=wrap;html=1;fillColor=#ffffff;strokeColor=#999999;fontSize=13;fontStyle=1;align=left;verticalAlign=top;spacingLeft=10;spacingTop=5;" parent="1" vertex="1">
                    <mxGeometry x="660" y="480" width="600" height="80" as="geometry"/>
                </mxCell>
                <mxCell id="analysis-thread-2-meta" value="💬 167 posts | 👁️ 4,123 views | 🕐 Updated 2 hours ago&#xa;🏷️ Tags: Economic Model | Quantitative | Prediction&#xa;Top contributor: @financeprof ⭐⭐⭐⭐⭐" style="text;html=1;strokeColor=none;fillColor=none;align=left;verticalAlign=top;whiteSpace=wrap;fontSize=10;spacingLeft=10;spacingTop=5;" parent="1" vertex="1">
                    <mxGeometry x="670" y="510" width="580" height="40" as="geometry"/>
                </mxCell>
                <mxCell id="thread-category-3" value="🏛️ INSTITUTIONAL / OFFICIAL RESPONSES" style="rounded=1;whiteSpace=wrap;html=1;fillColor=#e1d5e7;strokeColor=#9673a6;fontSize=16;fontStyle=1;align=left;verticalAlign=top;spacingLeft=15;spacingTop=10;" parent="1" vertex="1">
                    <mxGeometry x="40" y="610" width="1240" height="150" as="geometry"/>
                </mxCell>
                <mxCell id="institutional-thread-1" value="🏦 Banking Coalition Joint Statement Analysis" style="rounded=1;whiteSpace=wrap;html=1;fillColor=#ffffff;strokeColor=#999999;fontSize=13;fontStyle=1;align=left;verticalAlign=top;spacingLeft=10;spacingTop=5;" parent="1" vertex="1">
                    <mxGeometry x="60" y="650" width="580" height="80" as="geometry"/>
                </mxCell>
                <mxCell id="institutional-thread-1-meta" value="💬 94 posts | 👁️ 2,734 views | 🕐 Updated 3 hours ago&#xa;🏷️ Tags: Corporate Response | Banking | Stakeholder&#xa;Top contributor: @bankanalyst ⭐⭐⭐⭐" style="text;html=1;strokeColor=none;fillColor=none;align=left;verticalAlign=top;whiteSpace=wrap;fontSize=10;spacingLeft=10;spacingTop=5;" parent="1" vertex="1">
                    <mxGeometry x="70" y="680" width="560" height="40" as="geometry"/>
                </mxCell>
                <mxCell id="institutional-thread-2" value="🗣️ Congressional Hearing: Warren&#39;s Privacy Concerns" style="rounded=1;whiteSpace=wrap;html=1;fillColor=#ffffff;strokeColor=#999999;fontSize=13;fontStyle=1;align=left;verticalAlign=top;spacingLeft=10;spacingTop=5;" parent="1" vertex="1">
                    <mxGeometry x="660" y="650" width="600" height="80" as="geometry"/>
                </mxCell>
                <mxCell id="institutional-thread-2-meta" value="💬 156 posts | 👁️ 6,891 views | 🕐 Updated 45 min ago&#xa;🏷️ Tags: Politics | Regulation | Congressional Record&#xa;Top contributor: @polisciwatcher ⭐⭐⭐⭐⭐" style="text;html=1;strokeColor=none;fillColor=none;align=left;verticalAlign=top;whiteSpace=wrap;fontSize=10;spacingLeft=10;spacingTop=5;" parent="1" vertex="1">
                    <mxGeometry x="670" y="680" width="580" height="40" as="geometry"/>
                </mxCell>
                <mxCell id="thread-category-4" value="🪞 REFLECTIONS / ETHICS &amp; IMPACT" style="rounded=1;whiteSpace=wrap;html=1;fillColor=#fff2cc;strokeColor=#d6b656;fontSize=16;fontStyle=1;align=left;verticalAlign=top;spacingLeft=15;spacingTop=10;" parent="1" vertex="1">
                    <mxGeometry x="40" y="780" width="1240" height="150" as="geometry"/>
                </mxCell>
                <mxCell id="reflections-thread-1" value="💭 Surveillance vs. Convenience: The CBDC Dilemma" style="rounded=1;whiteSpace=wrap;html=1;fillColor=#ffffff;strokeColor=#999999;fontSize=13;fontStyle=1;align=left;verticalAlign=top;spacingLeft=10;spacingTop=5;" parent="1" vertex="1">
                    <mxGeometry x="60" y="820" width="580" height="80" as="geometry"/>
                </mxCell>
                <mxCell id="reflections-thread-1-meta" value="💬 312 posts | 👁️ 8,234 views | 🕐 Updated 20 min ago&#xa;🏷️ Tags: Ethics | Philosophy | Civil Liberties&#xa;Top contributor: @techethicist ⭐⭐⭐⭐⭐" style="text;html=1;strokeColor=none;fillColor=none;align=left;verticalAlign=top;whiteSpace=wrap;fontSize=10;spacingLeft=10;spacingTop=5;" parent="1" vertex="1">
                    <mxGeometry x="70" y="850" width="560" height="40" as="geometry"/>
                </mxCell>
                <mxCell id="reflections-thread-2" value="🌍 Global Implications: Monetary Sovereignty" style="rounded=1;whiteSpace=wrap;html=1;fillColor=#ffffff;strokeColor=#999999;fontSize=13;fontStyle=1;align=left;verticalAlign=top;spacingLeft=10;spacingTop=5;" parent="1" vertex="1">
                    <mxGeometry x="660" y="820" width="600" height="80" as="geometry"/>
                </mxCell>
                <mxCell id="reflections-thread-2-meta" value="💬 178 posts | 👁️ 4,567 views | 🕐 Updated 1 hour ago&#xa;🏷️ Tags: Geopolitics | International Relations | Theory&#xa;Top contributor: @geoecon ⭐⭐⭐⭐" style="text;html=1;strokeColor=none;fillColor=none;align=left;verticalAlign=top;whiteSpace=wrap;fontSize=10;spacingLeft=10;spacingTop=5;" parent="1" vertex="1">
                    <mxGeometry x="670" y="850" width="580" height="40" as="geometry"/>
                </mxCell>
                <mxCell id="action-bar" value="" style="rounded=1;whiteSpace=wrap;html=1;fillColor=#e1d5e7;strokeColor=#9673a6;" parent="1" vertex="1">
                    <mxGeometry x="40" y="950" width="1240" height="80" as="geometry"/>
                </mxCell>
                <mxCell id="new-thread-btn" value="➕ CREATE NEW THREAD" style="rounded=1;whiteSpace=wrap;html=1;fillColor=#60a5fa;strokeColor=#3b82f6;fontColor=#ffffff;fontSize=14;fontStyle=1;" parent="1" vertex="1">
                    <mxGeometry x="60" y="970" width="280" height="40" as="geometry"/>
                </mxCell>
                <mxCell id="add-artifact-btn" value="📎 ADD ARTIFACT" style="rounded=1;whiteSpace=wrap;html=1;fillColor=#82b366;strokeColor=#2d6a2e;fontColor=#ffffff;fontSize=14;fontStyle=1;" parent="1" vertex="1">
                    <mxGeometry x="360" y="970" width="200" height="40" as="geometry"/>
                </mxCell>
                <mxCell id="watch-btn" value="👁️ WATCH STORY" style="rounded=1;whiteSpace=wrap;html=1;fillColor=#ffffff;strokeColor=#666666;fontSize=14;" parent="1" vertex="1">
                    <mxGeometry x="580" y="970" width="200" height="40" as="geometry"/>
                </mxCell>
                <mxCell id="export-btn" value="📥 EXPORT TIMELINE" style="rounded=1;whiteSpace=wrap;html=1;fillColor=#ffffff;strokeColor=#666666;fontSize=14;" parent="1" vertex="1">
                    <mxGeometry x="800" y="970" width="220" height="40" as="geometry"/>
                </mxCell>
                <mxCell id="sidebar" value="WORKSPACE TOOLS" style="rounded=0;whiteSpace=wrap;html=1;fillColor=#e1d5e7;strokeColor=#9673a6;fontSize=14;fontStyle=1;align=left;verticalAlign=top;spacingLeft=15;spacingTop=10;" parent="1" vertex="1">
                    <mxGeometry x="1320" y="160" width="580" height="900" as="geometry"/>
                </mxCell>
                <mxCell id="entropy-chart" value="📊 ENTROPY TRAJECTORY" style="rounded=1;whiteSpace=wrap;html=1;fillColor=#dae8fc;strokeColor=#6c8ebf;fontSize=14;fontStyle=1;align=left;verticalAlign=top;spacingLeft=15;spacingTop=10;" parent="1" vertex="1">
                    <mxGeometry x="1340" y="200" width="540" height="200" as="geometry"/>
                </mxCell>
                <mxCell id="chart-visual" value="[LINE GRAPH VISUALIZATION]&#xa;&#xa;1.0 (Chaotic) ┤&#xa;              │         ╭─╮&#xa;0.8           │      ╭──╯  ╰─╮&#xa;              │   ╭──╯       ╰──╮&#xa;0.6           │╭──╯              ╰──╮&#xa;              ││                    ╰───● Current: 0.78&#xa;0.0 (Canon.)  └┴────┴────┴────┴────┴────&#xa;              Oct 1  2   3   4   5  Today&#xa;&#xa;Trend: ↓ Improving (Δ -0.11 in 24h)" style="text;html=1;strokeColor=none;fillColor=none;align=left;verticalAlign=top;whiteSpace=wrap;fontSize=9;fontFamily=Courier New;spacingLeft=10;spacingTop=10;" parent="1" vertex="1">
                    <mxGeometry x="1350" y="240" width="520" height="150" as="geometry"/>
                </mxCell>
                <mxCell id="leaderboard" value="🏆 CONTRIBUTOR LEADERBOARD" style="rounded=1;whiteSpace=wrap;html=1;fillColor=#d5e8d4;strokeColor=#82b366;fontSize=14;fontStyle=1;align=left;verticalAlign=top;spacingLeft=15;spacingTop=10;" parent="1" vertex="1">
                    <mxGeometry x="1340" y="420" width="540" height="220" as="geometry"/>
                </mxCell>
                <mxCell id="leader-1" value="1. @economistJane - 247 helpful replies | 💰 $342 tips" style="rounded=1;whiteSpace=wrap;html=1;fillColor=#ffffff;strokeColor=#999999;fontSize=11;align=left;spacingLeft=10;" parent="1" vertex="1">
                    <mxGeometry x="1360" y="460" width="500" height="30" as="geometry"/>
                </mxCell>
                <mxCell id="leader-2" value="2. @cryptolawyer - 198 helpful replies | 💰 $289 tips" style="rounded=1;whiteSpace=wrap;html=1;fillColor=#ffffff;strokeColor=#999999;fontSize=11;align=left;spacingLeft=10;" parent="1" vertex="1">
                    <mxGeometry x="1360" y="500" width="500" height="30" as="geometry"/>
                </mxCell>
                <mxCell id="leader-3" value="3. @financeprof - 176 helpful replies | 💰 $256 tips" style="rounded=1;whiteSpace=wrap;html=1;fillColor=#ffffff;strokeColor=#999999;fontSize=11;align=left;spacingLeft=10;" parent="1" vertex="1">
                    <mxGeometry x="1360" y="540" width="500" height="30" as="geometry"/>
                </mxCell>
                <mxCell id="leader-4" value="4. @fedwatcher - 143 helpful replies | 💰 $198 tips" style="rounded=1;whiteSpace=wrap;html=1;fillColor=#ffffff;strokeColor=#999999;fontSize=11;align=left;spacingLeft=10;" parent="1" vertex="1">
                    <mxGeometry x="1360" y="580" width="500" height="30" as="geometry"/>
                </mxCell>
                <mxCell id="leader-5" value="5. @techethicist - 132 helpful replies | 💰 $187 tips" style="rounded=1;whiteSpace=wrap;html=1;fillColor=#ffffff;strokeColor=#999999;fontSize=11;align=left;spacingLeft=10;" parent="1" vertex="1">
                    <mxGeometry x="1360" y="620" width="500" height="30" as="geometry"/>
                </mxCell>
                <mxCell id="quick-add" value="➕ QUICK ADD ARTIFACT" style="rounded=1;whiteSpace=wrap;html=1;fillColor=#fff2cc;strokeColor=#d6b656;fontSize=14;fontStyle=1;align=left;verticalAlign=top;spacingLeft=15;spacingTop=10;" parent="1" vertex="1">
                    <mxGeometry x="1340" y="660" width="540" height="180" as="geometry"/>
                </mxCell>
                <mxCell id="artifact-input" value="🔗 Paste URL or upload file..." style="rounded=1;whiteSpace=wrap;html=1;fillColor=#ffffff;strokeColor=#666666;align=left;verticalAlign=middle;fontSize=12;spacingLeft=10;" parent="1" vertex="1">
                    <mxGeometry x="1360" y="700" width="500" height="40" as="geometry"/>
                </mxCell>
                <mxCell id="artifact-preview" value="Auto-parsed metadata:&#xa;📄 Type: PDF&#xa;📏 Size: 2.3 MB&#xa;🏷️ Suggested tags: Official | Data | Technical" style="text;html=1;strokeColor=none;fillColor=none;align=left;verticalAlign=top;whiteSpace=wrap;fontSize=10;spacingLeft=10;spacingTop=5;" parent="1" vertex="1">
                    <mxGeometry x="1360" y="750" width="500" height="60" as="geometry"/>
                </mxCell>
                <mxCell id="artifact-submit" value="ADD TO THREAD" style="rounded=1;whiteSpace=wrap;html=1;fillColor=#60a5fa;strokeColor=#3b82f6;fontColor=#ffffff;fontSize=12;fontStyle=1;" parent="1" vertex="1">
                    <mxGeometry x="1360" y="820" width="500" height="30" as="geometry"/>
                </mxCell>
                <mxCell id="ai-suggest" value="💡 Suggest Cross-References" style="rounded=1;whiteSpace=wrap;html=1;fillColor=#ffffff;strokeColor=#999999;fontSize=12;align=left;spacingLeft=10;" parent="1" vertex="1">
                    <mxGeometry x="1360" y="900" width="240" height="40" as="geometry"/>
                </mxCell>
                <mxCell id="ai-detect" value="⚠️ Detect Contradictions" style="rounded=1;whiteSpace=wrap;html=1;fillColor=#ffffff;strokeColor=#999999;fontSize=12;align=left;spacingLeft=10;" parent="1" vertex="1">
                    <mxGeometry x="1620" y="900" width="240" height="40" as="geometry"/>
                </mxCell>
                <mxCell id="ai-summarize" value="📝 Auto-Summarize Thread" style="rounded=1;whiteSpace=wrap;html=1;fillColor=#ffffff;strokeColor=#999999;fontSize=12;align=left;spacingLeft=10;" parent="1" vertex="1">
                    <mxGeometry x="1360" y="960" width="240" height="40" as="geometry"/>
                </mxCell>
                <mxCell id="ai-timeline" value="⏱️ Generate Timeline" style="rounded=1;whiteSpace=wrap;html=1;fillColor=#ffffff;strokeColor=#999999;fontSize=12;align=left;spacingLeft=10;" parent="1" vertex="1">
                    <mxGeometry x="1620" y="960" width="240" height="40" as="geometry"/>
                </mxCell>
                <mxCell id="ai-note" value="💡 MVP 1: Buttons present but functionality minimal/mocked" style="text;html=1;strokeColor=none;fillColor=none;align=center;verticalAlign=middle;whiteSpace=wrap;fontSize=9;fontStyle=2;" parent="1" vertex="1">
                    <mxGeometry x="1360" y="1010" width="500" height="20" as="geometry"/>
                </mxCell>
            </root>
        </mxGraphModel>
    </diagram>
</mxfile>